HIERARCHY
ROOT Hips
{
	OFFSET -0.179506 -22.333345 2.821913
	CHANNELS 6 Xposition Yposition Zposition Zrotation Yrotation Xrotation 
	JOINT LeftUpLeg
	{
		OFFSET 6.951974 -9.140623 -0.681533
		CHANNELS 3 Zrotation Yrotation Xrotation
		JOINT LeftLeg
		{
			OFFSET 3.427654 -37.519855 -0.449580
			CHANNELS 3 Zrotation Yrotation Xrotation
			JOINT LeftFoot
			{
				OFFSET -1.359570 -39.796059 -4.369333
				CHANNELS 3 Zrotation Yrotation Xrotation
				JOINT LeftToe
				{
					OFFSET 2.635814 -5.579078 11.928840
					CHANNELS 3 Zrotation Yrotation Xrotation
					End Site
					{
						OFFSET 0.000000 0.000000 0.000000
					}
				}
			}
		}
	}
	JOINT RightUpLeg
	{
		OFFSET -6.767048 -9.052170 -0.431982
		CHANNELS 3 Zrotation Yrotation Xrotation
		JOINT RightLeg
		{
			OFFSET -3.829005 -38.256897 -0.885003
			CHANNELS 3 Zrotation Yrotation Xrotation
			JOINT RightFoot
			{
				OFFSET 1.577377 -39.841461 -4.231180
				CHANNELS 3 Zrotation Yrotation Xrotation
				JOINT RightToe
				{
					OFFSET -2.537174 -4.814398 12.334795
					CHANNELS 3 Zrotation Yrotation Xrotation
					End Site
					{
						OFFSET 0.000000 0.000000 0.000000
					}
				}
			}
		}
	}
	JOINT Spine
	{
		OFFSET -0.253288 10.896323 -2.669631
		CHANNELS 3 Zrotation Yrotation Xrotation
		JOINT Spine1
		{
			OFFSET 0.548704 13.518043 0.109247
			CHANNELS 3 Zrotation Yrotation Xrotation
			JOINT Spine2
			{
				OFFSET 0.145701 5.292222 2.542457
				CHANNELS 3 Zrotation Yrotation Xrotation
				JOINT Neck
				{
					OFFSET -0.277840 21.387037 -4.285703
					CHANNELS 3 Zrotation Yrotation Xrotation
					JOINT Head
					{
						OFFSET 0.515184 6.496960 5.134897
						CHANNELS 3 Zrotation Yrotation Xrotation
						End Site
						{
							OFFSET 0.000000 0.000000 0.000000
						}
					}
				}
				JOINT LeftShoulder
				{
					OFFSET 7.884473 12.174932 -3.408961
					CHANNELS 3 Zrotation Yrotation Xrotation
					JOINT LeftArm
					{
						OFFSET 9.097692 3.046888 -0.886815
						CHANNELS 3 Zrotation Yrotation Xrotation
						JOINT LeftForeArm
						{
							OFFSET 25.961220 -1.277207 -2.745643
							CHANNELS 3 Zrotation Yrotation Xrotation
							JOINT LeftHand
							{
								OFFSET 24.923361 0.898606 -0.117091
								CHANNELS 3 Zrotation Yrotation Xrotation
								End Site
								{
									OFFSET 0.000000 0.000000 0.000000
								}
							}
						}
					}
				}
				JOINT RightShoulder
				{
					OFFSET -8.175920 11.883285 -3.861528
					CHANNELS 3 Zrotation Yrotation Xrotation
					JOINT RightArm
					{
						OFFSET -9.601238 3.255117 -0.914307
						CHANNELS 3 Zrotation Yrotation Xrotation
						JOINT RightForeArm
						{
							OFFSET -25.374195 -1.332924 -2.140099
							CHANNELS 3 Zrotation Yrotation Xrotation
							JOINT RightHand
							{
								OFFSET -25.529810 0.777228 -0.555919
								CHANNELS 3 Zrotation Yrotation Xrotation
								End Site
								{
									OFFSET 0.000000 0.000000 0.000000
								}
							}
						}
					}
				}
			}
		}
	}
}
MOTION
Frames: 10
Frame Time: 0.033333
-23.718283 -389.130737 88.098656 170.424796 1.626420 94.024988 6.919166 2.993856 -44.025993 -3.122535 22.196266 55.274391 8.378409 19.723897 -25.354398 nan nan nan -6.183973 -5.850240 -23.427820 2.761164 -14.555452 43.449655 4.967819 -5.544152 1.557473 nan nan nan -1.297370 5.734061 14.780503 2.518487 0.010540 3.446712 -0.842548 3.292036 -1.065689 0.858664 4.238958 5.543186 -0.637809 5.022453 -6.371186 -21.269340 12.780907 5.621022 -52.127768 25.750409 17.510898 -24.876165 -77.320805 45.115774 20.024843 -17.907456 -27.406095 20.698204 4.872994 5.388618 46.598693 6.694031 11.753156 149.783505 81.716178 156.459954 -31.283078 16.369575 -35.864185 
-23.536512 -386.739838 88.330719 170.646337 2.022847 94.319838 6.602225 3.073934 -43.236619 -3.153545 22.142115 53.926574 8.370087 19.826326 -25.020946 nan nan nan -6.310477 -5.817678 -23.570517 2.765157 -14.216687 42.625751 5.086738 -5.591442 2.267545 nan nan nan -1.098845 5.530964 14.489540 2.651597 0.031848 3.083871 -0.871562 3.214682 -1.190208 1.107057 4.711646 5.496043 -0.948549 5.543076 -5.449095 -21.410731 13.081509 4.727491 -51.673731 24.965766 18.269340 -24.720546 -76.384246 45.313269 19.019604 -17.925903 -26.418142 20.828862 4.071320 4.832004 46.261138 5.949008 12.731075 134.838272 82.677365 142.059189 -29.629686 16.537172 -33.784349 
-23.261152 -384.417297 88.531715 170.959960 2.377759 94.151503 6.298028 3.244571 -41.805715 -3.170461 21.984497 52.827230 8.266201 19.987803 -25.128717 nan nan nan -6.304774 -5.861824 -23.888730 2.794765 -14.342018 41.829460 5.107907 -5.660301 2.872617 nan nan nan -1.084833 5.207004 14.185297 2.770684 0.027684 3.217389 -0.930251 3.053895 -1.206727 1.357351 4.606169 5.480190 -0.984696 5.321537 -4.972202 -21.530944 13.436047 4.473576 -52.170755 24.182888 18.279908 -22.488325 -76.432388 42.504494 18.637427 -17.886880 -25.675057 21.003439 3.421357 4.652224 46.884631 5.401342 13.194307 120.312132 83.660308 127.571246 -28.691543 16.513381 -32.699669 
-22.974970 -382.030304 88.663696 171.606018 2.711974 94.039184 5.871305 3.264832 -40.316562 -3.306356 21.744523 52.073906 8.214497 20.207103 -25.425460 nan nan nan -6.290587 -5.867231 -24.245869 2.848851 -14.434640 41.367268 5.060101 -5.788561 3.481479 nan nan nan -1.030526 4.871683 13.827626 2.875449 -0.025116 3.487908 -0.971017 2.854385 -1.282558 1.681899 4.570969 5.380603 -0.934957 5.200484 -4.444306 -21.868887 13.434552 4.342310 -52.387321 23.330133 18.283607 -20.077732 -76.742539 39.416547 18.083543 -17.864153 -24.724574 21.217699 2.813415 4.741848 47.564461 4.013670 13.543223 106.007537 83.828211 113.343439 -27.445908 16.549791 -31.879462 
-22.536621 -379.623260 88.598709 171.348764 2.420950 94.102033 4.784181 4.142935 -38.490822 -2.465973 24.334872 47.964619 6.355939 17.260553 -14.992658 nan nan nan -6.051876 -7.799505 -23.243110 2.064895 -17.769332 31.066931 4.102585 -7.719118 9.012903 nan nan nan -1.747098 5.160520 12.947776 2.505057 -0.132595 3.873426 -0.823231 2.781703 -0.994864 2.079087 5.041414 5.392584 -0.644082 5.429189 -3.913831 -21.722353 13.346648 4.404549 -52.198795 22.211773 18.919716 -19.276219 -77.421870 37.066393 19.802799 -16.702418 -25.993727 21.483587 2.257867 4.565090 48.692904 4.620202 13.579396 86.677052 86.044664 91.267574 -27.930047 14.949829 -30.874310 
-22.270658 -377.086548 88.430168 172.459862 2.238606 94.090405 3.952089 3.530522 -36.990810 -2.484765 24.044796 48.033685 6.219460 17.537123 -14.464912 nan nan nan -5.283712 -7.560412 -23.830656 2.294526 -17.988000 28.022806 3.509510 -8.549355 10.309459 nan nan nan -2.234582 4.840806 12.831569 2.567589 -0.301557 3.883718 -0.841008 2.397617 -1.067122 2.463534 4.535256 4.355630 -0.243267 5.317767 -3.386623 -21.493918 13.842591 4.209172 -51.930661 20.852565 19.325947 -20.633245 -77.826961 37.983789 19.159579 -16.313930 -24.612898 21.514735 0.849733 4.115412 49.313025 3.329617 14.541148 66.743453 84.291576 71.869057 -26.513531 14.543884 -29.042057 
-21.809483 -374.604950 87.975182 171.802661 2.297325 95.855203 3.916602 4.064671 -37.241870 -1.904465 25.337404 48.860846 5.948034 17.311791 -12.743099 nan nan nan -4.714555 -7.360123 -26.588787 2.311300 -18.991230 26.547990 2.858146 -9.038795 11.526289 nan nan nan -3.025321 4.355495 12.519681 2.352892 0.047543 2.430519 -1.173909 2.251312 -2.988840 3.874799 5.569983 3.570453 -0.361243 5.056858 -0.904471 -20.804424 16.850750 3.049598 -50.331289 20.774918 21.041999 -23.693885 -77.772818 41.167373 18.542846 -17.001635 -24.310365 21.906500 -1.642856 3.863677 50.156629 2.475577 17.274322 50.000355 81.665469 55.677849 -26.199910 14.477840 -28.865780 
-22.844027 -373.104095 88.199142 174.081812 -0.308691 93.964285 0.437157 -2.783771 -33.032846 -9.014570 14.682244 45.078572 5.989305 13.078959 -13.686019 nan nan nan -4.547491 -7.105235 -20.605998 1.343070 -17.117111 23.845211 1.460422 -11.294976 11.032242 nan nan nan -3.165204 4.923967 12.572119 1.359588 -1.248410 5.364552 -1.118982 1.689942 -0.966399 1.399288 2.210834 3.030443 1.309555 7.146526 -2.373692 -23.039535 10.693057 4.547387 -52.275388 17.389410 18.925788 -6.805760 -77.728984 24.684504 18.446524 -17.479158 -19.870511 21.414959 1.065040 3.266652 50.860295 1.725192 14.478101 53.302446 80.644605 64.698108 -22.798722 15.346738 -14.840869 
-22.590767 -370.907532 88.036362 173.880293 -0.022485 93.706096 0.134682 -2.542689 -30.768037 -9.228297 13.858339 44.426820 6.161179 13.586431 -15.936401 nan nan nan -4.588773 -7.026935 -20.953442 1.497770 -16.972863 23.776581 1.599942 -11.270242 10.898769 nan nan nan -3.285677 4.714421 12.543626 1.479521 -1.068350 5.828713 -1.117993 1.636925 -1.102922 1.558578 2.492312 2.891480 1.164611 7.038955 -2.199920 -22.865852 10.446595 4.317864 -52.843586 16.016293 19.030377 -3.265574 -77.905007 20.841551 18.175545 -17.807964 -19.537192 21.415576 0.823603 3.037513 51.198427 1.031858 14.580040 41.897597 79.371430 53.430703 -22.052341 15.418657 -14.562279 
-23.798914 -369.306488 87.834663 169.520669 0.478577 95.855471 -0.572330 -2.380398 -30.855867 -8.676523 15.235246 42.948741 6.553101 14.033150 -16.212470 nan nan nan -5.679928 -7.127575 -17.929852 1.124588 -15.598408 25.559890 2.431880 -10.017770 10.498314 nan nan nan -1.288170 5.371141 10.340272 0.439972 -0.165996 6.787712 -2.043352 2.765936 -2.190857 1.206555 3.117717 3.484114 -0.033277 7.379688 -2.725223 -25.077202 9.850905 2.588940 -53.515928 16.708321 19.359922 7.651161 -78.013434 9.925589 16.328121 -18.706445 -17.465528 21.134196 1.483493 3.559400 50.194724 0.061250 14.284347 34.731060 78.275345 45.732072 -19.403802 16.333184 -13.146675 
